{
  "source": "C:\\Users\\Peter\\Desktop\\stuff\\MIUN\\quantitative_research\\video_compression\\videos\\BVI-HD\\BVI-HD_CDVL_videos\\ORIG\\Toys_1920x1080_30fps.mp4",
  "output": "C:\\Users\\Peter\\Desktop\\stuff\\MIUN\\quantitative_research\\video_compression\\compressed_videos\\BVI-HD\\hevc\\2.5\\Toys_1920x1080_30fps_hevc.mp4",
  "codec": "hevc",
  "ok": "Input #0, mov,mp4,m4a,3gp,3g2,mj2, from 'C:\\Users\\Peter\\Desktop\\stuff\\MIUN\\quantitative_research\\video_compression\\videos\\BVI-HD\\BVI-HD_CDVL_videos\\ORIG\\Toys_1920x1080_30fps.mp4':\n  Metadata:\n    major_brand     : isom\n    minor_version   : 512\n    compatible_brands: isomiso2avc1mp41\n    encoder         : Lavf54.28.101\n  Duration: 00:00:05.00, start: 0.000000, bitrate: 270887 kb/s\n  Stream #0:0[0x1](und): Video: h264 (High 4:4:4 Predictive) (avc1 / 0x31637661), yuv420p(progressive), 1920x1080, 270883 kb/s, 30 fps, 30 tbr, 30 tbn (default)\n    Metadata:\n      handler_name    : VideoHandler\n      vendor_id       : [0][0][0][0]\n[out#0/mp4 @ 0000029122d9ab00] Codec AVOption b:a (set bitrate (in bits/s)) has not been used for any stream. The most likely reason is either wrong type (e.g. a video option with no video streams) or that it is a private option of some decoder which was not actually used for any stream.\nStream mapping:\n  Stream #0:0 -> #0:0 (h264 (native) -> hevc (libx265))\nPress [q] to stop, [?] for help\n[libx265 @ 00000291238c0bc0] Unknown option: \"aq-mode.\nx265 [info]: HEVC encoder version 4.1+190-8f11c33ac\nx265 [info]: build info [Windows][GCC 15.1.0][64 bit] 10bit\nx265 [info]: using cpu capabilities: MMX2 SSE2Fast LZCNT SSSE3 SSE4.2 AVX FMA3 BMI2 AVX2\nx265 [info]: Main 10 profile, Level-4 (Main tier)\nx265 [info]: Thread pool created using 12 threads\nx265 [info]: Slices                              : 1\nx265 [info]: frame threads / pool features       : 3 / wpp(17 rows)\nx265 [info]: Coding QT: max CU size, min CU size : 64 / 8\nx265 [info]: Residual QT: max TU size, max depth : 32 / 1 inter / 1 intra\nx265 [info]: ME / range / subpel / merge         : star / 57 / 3 / 3\nx265 [info]: Keyframe min / max / scenecut / bias  : 25 / 250 / 40 / 5.00 \nx265 [info]: Lookahead / bframes / badapt        : 25 / 4 / 2\nx265 [info]: b-pyramid / weightp / weightb       : 1 / 1 / 0\nx265 [info]: References / ref-limit  cu / depth  : 4 / on / on\nx265 [info]: AQ: mode / str / qg-size / cu-tree  : 2 / 1.0 / 32 / 1\nx265 [info]: Rate Control / qCompress            : ABR-2500 kbps / 0.60\nx265 [info]: VBV/HRD buffer / max-rate / init    : 2500 / 2500 / 0.750\nx265 [info]: tools: rect limit-modes rd=4 psy-rd=2.00 rdoq=2 psy-rdoq=1.00\nx265 [info]: tools: rskip mode=1 signhide tmvp strong-intra-smoothing lslices=4\nx265 [info]: tools: deblock sao dhdr10-info\nOutput #0, mp4, to 'C:\\Users\\Peter\\Desktop\\stuff\\MIUN\\quantitative_research\\video_compression\\compressed_videos\\BVI-HD\\hevc\\2.5\\Toys_1920x1080_30fps_hevc.mp4':\n  Metadata:\n    major_brand     : isom\n    minor_version   : 512\n    compatible_brands: isomiso2avc1mp41\n    encoder         : Lavf62.3.100\n  Stream #0:0(und): Video: hevc (hev1 / 0x31766568), yuv420p10le(tv, progressive), 1920x1080, q=2-31, 2500 kb/s, 30 fps, 15360 tbn (default)\n    Metadata:\n      encoder         : Lavc62.11.100 libx265\n      handler_name    : VideoHandler\n      vendor_id       : [0][0][0][0]\n    Side data:\n      cpb: bitrate max/min/avg: 2500000/0/2500000 buffer size: 2500000 vbv_delay: N/A\nframe=    0 fps=0.0 q=0.0 size=       0KiB time=N/A bitrate=N/A speed=N/A elapsed=0:00:00.52    \nframe=    0 fps=0.0 q=0.0 size=       0KiB time=N/A bitrate=N/A speed=N/A elapsed=0:00:01.08    \nframe=    0 fps=0.0 q=0.0 size=       0KiB time=N/A bitrate=N/A speed=N/A elapsed=0:00:01.59    \nframe=    0 fps=0.0 q=0.0 size=       0KiB time=N/A bitrate=N/A speed=N/A elapsed=0:00:02.11    \nframe=    0 fps=0.0 q=0.0 size=       0KiB time=N/A bitrate=N/A speed=N/A elapsed=0:00:02.62    \nframe=    0 fps=0.0 q=0.0 size=       0KiB time=N/A bitrate=N/A speed=N/A elapsed=0:00:03.14    \nframe=    0 fps=0.0 q=0.0 size=       0KiB time=N/A bitrate=N/A speed=N/A elapsed=0:00:03.65    \nframe=    0 fps=0.0 q=0.0 size=       0KiB time=N/A bitrate=N/A speed=N/A elapsed=0:00:04.16    \nframe=    0 fps=0.0 q=0.0 size=       0KiB time=N/A bitrate=N/A speed=N/A elapsed=0:00:04.69    \nframe=    1 fps=0.2 q=34.4 size=       0KiB time=-00:00:00.03 bitrate=N/A speed=N/A elapsed=0:00:05.19    \nframe=    3 fps=0.5 q=45.3 size=       0KiB time=00:00:00.03 bitrate=  10.6kbits/s speed=0.00582x elapsed=0:00:05.73    \nframe=    3 fps=0.5 q=45.3 size=       0KiB time=00:00:00.03 bitrate=  10.6kbits/s speed=0.00534x elapsed=0:00:06.24    \nframe=    4 fps=0.6 q=47.0 size=       0KiB time=00:00:00.06 bitrate=   5.3kbits/s speed=0.00986x elapsed=0:00:06.76    \nframe=    5 fps=0.7 q=44.9 size=       0KiB time=00:00:00.10 bitrate=   3.5kbits/s speed=0.0137x elapsed=0:00:07.28    \nframe=    6 fps=0.8 q=37.8 size=       0KiB time=00:00:00.13 bitrate=   2.6kbits/s speed=0.0171x elapsed=0:00:07.80    \nframe=    7 fps=0.8 q=40.8 size=       0KiB time=00:00:00.16 bitrate=   2.1kbits/s speed=0.02x elapsed=0:00:08.31    \nframe=    7 fps=0.8 q=40.8 size=       0KiB time=00:00:00.16 bitrate=   2.1kbits/s speed=0.0189x elapsed=0:00:08.83    \nframe=    8 fps=0.9 q=41.4 size=       0KiB time=00:00:00.20 bitrate=   1.8kbits/s speed=0.0214x elapsed=0:00:09.34    \nframe=    8 fps=0.8 q=41.4 size=       0KiB time=00:00:00.20 bitrate=   1.8kbits/s speed=0.0203x elapsed=0:00:09.85    \nframe=   10 fps=1.0 q=36.2 size=       0KiB time=00:00:00.26 bitrate=   1.3kbits/s speed=0.0257x elapsed=0:00:10.37    \nframe=   11 fps=1.0 q=40.6 size=       0KiB time=00:00:00.30 bitrate=   1.2kbits/s speed=0.0275x elapsed=0:00:10.89    \nframe=   11 fps=1.0 q=40.6 size=       0KiB time=00:00:00.30 bitrate=   1.2kbits/s speed=0.0263x elapsed=0:00:11.40    \nframe=   12 fps=1.0 q=41.8 size=       0KiB time=00:00:00.33 bitrate=   1.1kbits/s speed=0.028x elapsed=0:00:11.92    \nframe=   13 fps=1.0 q=42.9 size=       0KiB time=00:00:00.36 bitrate=   1.0kbits/s speed=0.0295x elapsed=0:00:12.44    \nframe=   14 fps=1.1 q=35.8 size=       0KiB time=00:00:00.40 bitrate=   0.9kbits/s speed=0.0309x elapsed=0:00:12.94    \nframe=   15 fps=1.1 q=39.8 size=       0KiB time=00:00:00.43 bitrate=   0.8kbits/s speed=0.0322x elapsed=0:00:13.47    \nframe=   15 fps=1.1 q=39.8 size=       0KiB time=00:00:00.43 bitrate=   0.8kbits/s speed=0.031x elapsed=0:00:13.98    \nframe=   16 fps=1.1 q=42.2 size=       0KiB time=00:00:00.46 bitrate=   0.8kbits/s speed=0.0322x elapsed=0:00:14.49    \nframe=   18 fps=1.2 q=35.4 size=       0KiB time=00:00:00.53 bitrate=   0.7kbits/s speed=0.0355x elapsed=0:00:15.01    \nframe=   18 fps=1.2 q=35.4 size=       0KiB time=00:00:00.53 bitrate=   0.7kbits/s speed=0.0343x elapsed=0:00:15.54    \nframe=   18 fps=1.1 q=35.4 size=       0KiB time=00:00:00.53 bitrate=   0.7kbits/s speed=0.0331x elapsed=0:00:16.12    \nframe=   18 fps=1.1 q=35.4 size=       0KiB time=00:00:00.53 bitrate=   0.7kbits/s speed=0.032x elapsed=0:00:16.64    \nframe=   18 fps=1.0 q=35.4 size=       0KiB time=00:00:00.53 bitrate=   0.7kbits/s speed=0.0311x elapsed=0:00:17.17    \nframe=   18 fps=1.0 q=35.4 size=       0KiB time=00:00:00.53 bitrate=   0.7kbits/s speed=0.0301x elapsed=0:00:17.71    \nframe=   19 fps=1.0 q=39.5 size=       0KiB time=00:00:00.56 bitrate=   0.6kbits/s speed=0.0311x elapsed=0:00:18.23    \nframe=   19 fps=1.0 q=39.5 size=       0KiB time=00:00:00.56 bitrate=   0.6kbits/s speed=0.0302x elapsed=0:00:18.76    \nframe=   20 fps=1.0 q=42.0 size=       0KiB time=00:00:00.60 bitrate=   0.6kbits/s speed=0.0311x elapsed=0:00:19.30    \nframe=   20 fps=1.0 q=42.0 size=       0KiB time=00:00:00.60 bitrate=   0.6kbits/s speed=0.0302x elapsed=0:00:19.85    \nframe=   21 fps=1.0 q=35.2 size=       0KiB time=00:00:00.63 bitrate=   0.6kbits/s speed=0.031x elapsed=0:00:20.40    \nframe=   21 fps=1.0 q=35.2 size=       0KiB time=00:00:00.63 bitrate=   0.6kbits/s speed=0.0302x elapsed=0:00:20.96    \nframe=   21 fps=1.0 q=35.2 size=       0KiB time=00:00:00.63 bitrate=   0.6kbits/s speed=0.0294x elapsed=0:00:21.55    \nframe=   21 fps=0.9 q=35.2 size=       0KiB time=00:00:00.63 bitrate=   0.6kbits/s speed=0.0285x elapsed=0:00:22.20    \nframe=   21 fps=0.9 q=35.2 size=       0KiB time=00:00:00.63 bitrate=   0.6kbits/s speed=0.0278x elapsed=0:00:22.81    \nframe=   21 fps=0.9 q=35.2 size=       0KiB time=00:00:00.63 bitrate=   0.6kbits/s speed=0.0271x elapsed=0:00:23.34    \nframe=   21 fps=0.9 q=35.2 size=       0KiB time=00:00:00.63 bitrate=   0.6kbits/s speed=0.0265x elapsed=0:00:23.90    \nframe=   21 fps=0.9 q=35.2 size=       0KiB time=00:00:00.63 bitrate=   0.6kbits/s speed=0.0259x elapsed=0:00:24.42    \nframe=   22 fps=0.9 q=39.1 size=       0KiB time=00:00:00.66 bitrate=   0.5kbits/s speed=0.0267x elapsed=0:00:24.96    \nframe=   22 fps=0.9 q=39.1 size=       0KiB time=00:00:00.66 bitrate=   0.5kbits/s speed=0.0261x elapsed=0:00:25.53    \nframe=   22 fps=0.8 q=39.1 size=       0KiB time=00:00:00.66 bitrate=   0.5kbits/s speed=0.0256x elapsed=0:00:26.08    \nframe=   22 fps=0.8 q=39.1 size=       0KiB time=00:00:00.66 bitrate=   0.5kbits/s speed=0.025x elapsed=0:00:26.63    \nframe=   22 fps=0.8 q=39.1 size=       0KiB time=00:00:00.66 bitrate=   0.5kbits/s speed=0.0245x elapsed=0:00:27.16    \nframe=   22 fps=0.8 q=39.1 size=       0KiB time=00:00:00.66 bitrate=   0.5kbits/s speed=0.0241x elapsed=0:00:27.69    \nframe=   22 fps=0.8 q=39.1 size=       0KiB time=00:00:00.66 bitrate=   0.5kbits/s speed=0.0236x elapsed=0:00:28.25    \nframe=   22 fps=0.8 q=39.1 size=       0KiB time=00:00:00.66 bitrate=   0.5kbits/s speed=0.0231x elapsed=0:00:28.84    \nframe=   22 fps=0.7 q=39.1 size=       0KiB time=00:00:00.66 bitrate=   0.5kbits/s speed=0.0227x elapsed=0:00:29.42    \nframe=   22 fps=0.7 q=39.1 size=       0KiB time=00:00:00.66 bitrate=   0.5kbits/s speed=0.0222x elapsed=0:00:30.02    \nframe=   23 fps=0.8 q=41.2 size=       0KiB time=00:00:00.70 bitrate=   0.5kbits/s speed=0.0229x elapsed=0:00:30.57    \nframe=   23 fps=0.7 q=41.2 size=       0KiB time=00:00:00.70 bitrate=   0.5kbits/s speed=0.0225x elapsed=0:00:31.12    \nframe=   23 fps=0.7 q=41.2 size=       0KiB time=00:00:00.70 bitrate=   0.5kbits/s speed=0.0221x elapsed=0:00:31.71    \nframe=   23 fps=0.7 q=41.2 size=       0KiB time=00:00:00.70 bitrate=   0.5kbits/s speed=0.0217x elapsed=0:00:32.27    \nframe=   23 fps=0.7 q=41.2 size=       0KiB time=00:00:00.70 bitrate=   0.5kbits/s speed=0.0213x elapsed=0:00:32.79    \nframe=   24 fps=0.7 q=41.0 size=       0KiB time=00:00:00.73 bitrate=   0.5kbits/s speed=0.022x elapsed=0:00:33.32    \nframe=   24 fps=0.7 q=41.0 size=       0KiB time=00:00:00.73 bitrate=   0.5kbits/s speed=0.0216x elapsed=0:00:33.93    \nframe=   24 fps=0.7 q=41.0 size=       0KiB time=00:00:00.73 bitrate=   0.5kbits/s speed=0.0213x elapsed=0:00:34.50    \nframe=   25 fps=0.7 q=35.2 size=       0KiB time=00:00:00.76 bitrate=   0.5kbits/s speed=0.0219x elapsed=0:00:35.04    \nframe=   25 fps=0.7 q=35.2 size=       0KiB time=00:00:00.76 bitrate=   0.5kbits/s speed=0.0216x elapsed=0:00:35.57    \nframe=   26 fps=0.7 q=39.6 size=     256KiB time=00:00:00.80 bitrate=2621.9kbits/s speed=0.0221x elapsed=0:00:36.14    \nframe=   27 fps=0.7 q=41.5 size=     256KiB time=00:00:00.83 bitrate=2517.0kbits/s speed=0.0227x elapsed=0:00:36.71    \nframe=   27 fps=0.7 q=41.5 size=     256KiB time=00:00:00.83 bitrate=2517.0kbits/s speed=0.0223x elapsed=0:00:37.29    \nframe=   27 fps=0.7 q=41.5 size=     256KiB time=00:00:00.83 bitrate=2517.0kbits/s speed=0.022x elapsed=0:00:37.83    \nframe=   27 fps=0.7 q=41.5 size=     256KiB time=00:00:00.83 bitrate=2517.0kbits/s speed=0.0217x elapsed=0:00:38.34    \nframe=   28 fps=0.7 q=41.3 size=     256KiB time=00:00:00.86 bitrate=2420.2kbits/s speed=0.0223x elapsed=0:00:38.88    \nframe=   28 fps=0.7 q=41.3 size=     256KiB time=00:00:00.86 bitrate=2420.2kbits/s speed=0.022x elapsed=0:00:39.45    \nframe=   28 fps=0.7 q=41.3 size=     256KiB time=00:00:00.86 bitrate=2420.2kbits/s speed=0.0217x elapsed=0:00:40.02    \nframe=   29 fps=0.7 q=40.8 size=     256KiB time=00:00:00.90 bitrate=2330.6kbits/s speed=0.0222x elapsed=0:00:40.57    \nframe=   29 fps=0.7 q=40.8 size=     256KiB time=00:00:00.90 bitrate=2330.6kbits/s speed=0.0219x elapsed=0:00:41.11    \nframe=   29 fps=0.7 q=40.8 size=     256KiB time=00:00:00.90 bitrate=2330.6kbits/s speed=0.0216x elapsed=0:00:41.70    \nframe=   29 fps=0.7 q=40.8 size=     256KiB time=00:00:00.90 bitrate=2330.6kbits/s speed=0.0213x elapsed=0:00:42.21    \nframe=   29 fps=0.7 q=40.8 size=     256KiB time=00:00:00.90 bitrate=2330.6kbits/s speed=0.0211x elapsed=0:00:42.73    \nframe=   29 fps=0.7 q=40.8 size=     256KiB time=00:00:00.90 bitrate=2330.6kbits/s speed=0.0208x elapsed=0:00:43.25    \nframe=   29 fps=0.7 q=40.8 size=     256KiB time=00:00:00.90 bitrate=2330.6kbits/s speed=0.0205x elapsed=0:00:43.82    \nframe=   29 fps=0.7 q=40.8 size=     256KiB time=00:00:00.90 bitrate=2330.6kbits/s speed=0.0203x elapsed=0:00:44.40    \nframe=   29 fps=0.6 q=40.8 size=     256KiB time=00:00:00.90 bitrate=2330.6kbits/s speed=0.02x elapsed=0:00:44.95    \nframe=   29 fps=0.6 q=40.8 size=     256KiB time=00:00:00.90 bitrate=2330.6kbits/s speed=0.0198x elapsed=0:00:45.53    \nframe=   29 fps=0.6 q=40.8 size=     256KiB time=00:00:00.90 bitrate=2330.6kbits/s speed=0.0195x elapsed=0:00:46.12    \nframe=   30 fps=0.6 q=34.8 size=     256KiB time=00:00:00.93 bitrate=2247.3kbits/s speed=0.02x elapsed=0:00:46.72    \nframe=   31 fps=0.7 q=39.2 size=     256KiB time=00:00:00.96 bitrate=2169.8kbits/s speed=0.0205x elapsed=0:00:47.25    \nframe=   31 fps=0.6 q=39.2 size=     256KiB time=00:00:00.96 bitrate=2169.8kbits/s speed=0.0202x elapsed=0:00:47.81    \nframe=   31 fps=0.6 q=39.2 size=     256KiB time=00:00:00.96 bitrate=2169.8kbits/s speed=0.02x elapsed=0:00:48.33    \nframe=   32 fps=0.7 q=41.0 size=     256KiB time=00:00:01.00 bitrate=2097.5kbits/s speed=0.0205x elapsed=0:00:48.86    \nframe=   32 fps=0.6 q=41.0 size=     256KiB time=00:00:01.00 bitrate=2097.5kbits/s speed=0.0202x elapsed=0:00:49.39    \nframe=   32 fps=0.6 q=41.0 size=     256KiB time=00:00:01.00 bitrate=2097.5kbits/s speed=0.02x elapsed=0:00:49.97    \nframe=   32 fps=0.6 q=41.0 size=     256KiB time=00:00:01.00 bitrate=2097.5kbits/s speed=0.0198x elapsed=0:00:50.58    \nframe=   32 fps=0.6 q=41.0 size=     256KiB time=00:00:01.00 bitrate=2097.5kbits/s speed=0.0195x elapsed=0:00:51.18    \nframe=   32 fps=0.6 q=41.0 size=     256KiB time=00:00:01.00 bitrate=2097.5kbits/s speed=0.0193x elapsed=0:00:51.79    \nframe=   32 fps=0.6 q=41.0 size=     256KiB time=00:00:01.00 bitrate=2097.5kbits/s speed=0.0191x elapsed=0:00:52.43    \nframe=   32 fps=0.6 q=41.0 size=     256KiB time=00:00:01.00 bitrate=2097.5kbits/s speed=0.0188x elapsed=0:00:53.05    \nframe=   32 fps=0.6 q=41.0 size=     256KiB time=00:00:01.00 bitrate=2097.5kbits/s speed=0.0186x elapsed=0:00:53.63    \nframe=   32 fps=0.6 q=41.0 size=     256KiB time=00:00:01.00 bitrate=2097.5kbits/s speed=0.0185x elapsed=0:00:54.18    \nframe=   32 fps=0.6 q=41.0 size=     256KiB time=00:00:01.00 bitrate=2097.5kbits/s speed=0.0183x elapsed=0:00:54.73    \nframe=   32 fps=0.6 q=41.0 size=     256KiB time=00:00:01.00 bitrate=2097.5kbits/s speed=0.0181x elapsed=0:00:55.24    \nframe=   32 fps=0.6 q=41.0 size=     256KiB time=00:00:01.00 bitrate=2097.5kbits/s speed=0.0179x elapsed=0:00:55.78    \nframe=   32 fps=0.6 q=41.0 size=     256KiB time=00:00:01.00 bitrate=2097.5kbits/s speed=0.0177x elapsed=0:00:56.38    \nframe=   33 fps=0.6 q=40.7 size=     256KiB time=00:00:01.03 bitrate=2029.8kbits/s speed=0.0181x elapsed=0:00:56.94    \nframe=   33 fps=0.6 q=40.7 size=     256KiB time=00:00:01.03 bitrate=2029.8kbits/s speed=0.018x elapsed=0:00:57.49    \nframe=   33 fps=0.6 q=40.7 size=     256KiB time=00:00:01.03 bitrate=2029.8kbits/s speed=0.0178x elapsed=0:00:58.06    \nframe=   33 fps=0.6 q=40.7 size=     256KiB time=00:00:01.03 bitrate=2029.8kbits/s speed=0.0176x elapsed=0:00:58.64    \nframe=   33 fps=0.6 q=40.7 size=     256KiB time=00:00:01.03 bitrate=2029.8kbits/s speed=0.0175x elapsed=0:00:59.20    \nframe=   33 fps=0.6 q=40.7 size=     256KiB time=00:00:01.03 bitrate=2029.8kbits/s speed=0.0173x elapsed=0:00:59.78    \nframe=   34 fps=0.6 q=34.8 size=     256KiB time=00:00:01.06 bitrate=1966.4kbits/s speed=0.0177x elapsed=0:01:00.31    \nframe=   34 fps=0.6 q=34.8 size=     256KiB time=00:00:01.06 bitrate=1966.4kbits/s speed=0.0175x elapsed=0:01:00.87    \nframe=   34 fps=0.6 q=34.8 size=     256KiB time=00:00:01.06 bitrate=1966.4kbits/s speed=0.0174x elapsed=0:01:01.43    \nframe=   34 fps=0.5 q=34.8 size=     256KiB time=00:00:01.06 bitrate=1966.4kbits/s speed=0.0172x elapsed=0:01:01.96    \nframe=   35 fps=0.6 q=38.6 size=     256KiB time=00:00:01.10 bitrate=1906.8kbits/s speed=0.0176x elapsed=0:01:02.48    \nframe=   35 fps=0.6 q=38.6 size=     256KiB time=00:00:01.10 bitrate=1906.8kbits/s speed=0.0175x elapsed=0:01:03.01    \nframe=   35 fps=0.6 q=38.6 size=     256KiB time=00:00:01.10 bitrate=1906.8kbits/s speed=0.0173x elapsed=0:01:03.56    \nframe=   35 fps=0.5 q=38.6 size=     256KiB time=00:00:01.10 bitrate=1906.8kbits/s speed=0.0172x elapsed=0:01:04.12    \nframe=   35 fps=0.5 q=38.6 size=     256KiB time=00:00:01.10 bitrate=1906.8kbits/s speed=0.017x elapsed=0:01:04.69    \nframe=   35 fps=0.5 q=38.6 size=     256KiB time=00:00:01.10 bitrate=1906.8kbits/s speed=0.0169x elapsed=0:01:05.22    \nframe=   35 fps=0.5 q=38.6 size=     256KiB time=00:00:01.10 bitrate=1906.8kbits/s speed=0.0167x elapsed=0:01:05.73    \nframe=   35 fps=0.5 q=38.6 size=     256KiB time=00:00:01.10 bitrate=1906.8kbits/s speed=0.0166x elapsed=0:01:06.26    \nframe=   35 fps=0.5 q=38.6 size=     256KiB time=00:00:01.10 bitrate=1906.8kbits/s speed=0.0165x elapsed=0:01:06.86    \nframe=   35 fps=0.5 q=38.6 size=     256KiB time=00:00:01.10 bitrate=1906.8kbits/s speed=0.0163x elapsed=0:01:07.44    \nframe=   35 fps=0.5 q=38.6 size=     256KiB time=00:00:01.10 bitrate=1906.8kbits/s speed=0.0162x elapsed=0:01:07.97    \nframe=   35 fps=0.5 q=38.6 size=     256KiB time=00:00:01.10 bitrate=1906.8kbits/s speed=0.016x elapsed=0:01:08.53    \nframe=   35 fps=0.5 q=38.6 size=     256KiB time=00:00:01.10 bitrate=1906.8kbits/s speed=0.0159x elapsed=0:01:09.09    \nframe=   36 fps=0.5 q=41.2 size=     256KiB time=00:00:01.13 bitrate=1850.7kbits/s speed=0.0163x elapsed=0:01:09.63    \nframe=   36 fps=0.5 q=41.2 size=     256KiB time=00:00:01.13 bitrate=1850.7kbits/s speed=0.0161x elapsed=0:01:10.17    \nframe=   37 fps=0.5 q=40.7 size=     256KiB time=00:00:01.16 bitrate=1797.9kbits/s speed=0.0165x elapsed=0:01:10.71    \nframe=   37 fps=0.5 q=40.7 size=     256KiB time=00:00:01.16 bitrate=1797.9kbits/s speed=0.0164x elapsed=0:01:11.28    \nframe=   37 fps=0.5 q=40.7 size=     256KiB time=00:00:01.16 bitrate=1797.9kbits/s speed=0.0162x elapsed=0:01:11.82    \nframe=   37 fps=0.5 q=40.7 size=     256KiB time=00:00:01.16 bitrate=1797.9kbits/s speed=0.0161x elapsed=0:01:12.36    \nframe=   37 fps=0.5 q=40.7 size=     256KiB time=00:00:01.16 bitrate=1797.9kbits/s speed=0.016x elapsed=0:01:12.90    \nframe=   37 fps=0.5 q=40.7 size=     256KiB time=00:00:01.16 bitrate=1797.9kbits/s speed=0.0159x elapsed=0:01:13.43    \nframe=   37 fps=0.5 q=40.7 size=     256KiB time=00:00:01.16 bitrate=1797.9kbits/s speed=0.0158x elapsed=0:01:14.00    \nframe=   38 fps=0.5 q=34.8 size=     256KiB time=00:00:01.20 bitrate=1747.9kbits/s speed=0.0161x elapsed=0:01:14.54    \nframe=   39 fps=0.5 q=38.5 size=     256KiB time=00:00:01.23 bitrate=1700.7kbits/s speed=0.0164x elapsed=0:01:15.08    \nframe=   39 fps=0.5 q=38.5 size=     256KiB time=00:00:01.23 bitrate=1700.7kbits/s speed=0.0163x elapsed=0:01:15.59    \nframe=   39 fps=0.5 q=38.5 size=     256KiB time=00:00:01.23 bitrate=1700.7kbits/s speed=0.0162x elapsed=0:01:16.13    \nframe=   39 fps=0.5 q=38.5 size=     256KiB time=00:00:01.23 bitrate=1700.7kbits/s speed=0.0161x elapsed=0:01:16.67    \nframe=   40 fps=0.5 q=41.2 size=     256KiB time=00:00:01.26 bitrate=1655.9kbits/s speed=0.0164x elapsed=0:01:17.23    \nframe=   40 fps=0.5 q=41.2 size=     256KiB time=00:00:01.26 bitrate=1655.9kbits/s speed=0.0163x elapsed=0:01:17.79    \nframe=   40 fps=0.5 q=41.2 size=     256KiB time=00:00:01.26 bitrate=1655.9kbits/s speed=0.0162x elapsed=0:01:18.31    \nframe=   40 fps=0.5 q=41.2 size=     256KiB time=00:00:01.26 bitrate=1655.9kbits/s speed=0.0161x elapsed=0:01:18.83    \nframe=   40 fps=0.5 q=41.2 size=     256KiB time=00:00:01.26 bitrate=1655.9kbits/s speed=0.016x elapsed=0:01:19.35    \nframe=   40 fps=0.5 q=41.2 size=     256KiB time=00:00:01.26 bitrate=1655.9kbits/s speed=0.0158x elapsed=0:01:19.97    \nframe=   41 fps=0.5 q=40.4 size=     256KiB time=00:00:01.30 bitrate=1613.5kbits/s speed=0.0161x elapsed=0:01:20.50    \nframe=   41 fps=0.5 q=40.4 size=     256KiB time=00:00:01.30 bitrate=1613.5kbits/s speed=0.016x elapsed=0:01:21.02    \nframe=   41 fps=0.5 q=40.4 size=     256KiB time=00:00:01.30 bitrate=1613.5kbits/s speed=0.0159x elapsed=0:01:21.57    \nframe=   41 fps=0.5 q=40.4 size=     256KiB time=00:00:01.30 bitrate=1613.5kbits/s speed=0.0158x elapsed=0:01:22.12    \nframe=   41 fps=0.5 q=40.4 size=     256KiB time=00:00:01.30 bitrate=1613.5kbits/s speed=0.0157x elapsed=0:01:22.69    \nframe=   41 fps=0.5 q=40.4 size=     256KiB time=00:00:01.30 bitrate=1613.5kbits/s speed=0.0156x elapsed=0:01:23.22    \nframe=   41 fps=0.5 q=40.4 size=     256KiB time=00:00:01.30 bitrate=1613.5kbits/s speed=0.0155x elapsed=0:01:23.75    \nframe=   42 fps=0.5 q=34.4 size=     256KiB time=00:00:01.33 bitrate=1573.1kbits/s speed=0.0158x elapsed=0:01:24.28    \nframe=   42 fps=0.5 q=34.4 size=     256KiB time=00:00:01.33 bitrate=1573.1kbits/s speed=0.0157x elapsed=0:01:24.80    \nframe=   42 fps=0.5 q=34.4 size=     256KiB time=00:00:01.33 bitrate=1573.1kbits/s speed=0.0156x elapsed=0:01:25.34    \nframe=   42 fps=0.5 q=34.4 size=     256KiB time=00:00:01.33 bitrate=1573.1kbits/s speed=0.0155x elapsed=0:01:25.90    \nframe=   42 fps=0.5 q=34.4 size=     256KiB time=00:00:01.33 bitrate=1573.1kbits/s speed=0.0154x elapsed=0:01:26.43    \nframe=   42 fps=0.5 q=34.4 size=     256KiB time=00:00:01.33 bitrate=1573.1kbits/s speed=0.0153x elapsed=0:01:26.99    \nframe=   42 fps=0.5 q=34.4 size=     256KiB time=00:00:01.33 bitrate=1573.1kbits/s speed=0.0152x elapsed=0:01:27.50    \nframe=   43 fps=0.5 q=37.6 size=     256KiB time=00:00:01.36 bitrate=1534.8kbits/s speed=0.0155x elapsed=0:01:28.04    \nframe=   43 fps=0.5 q=37.6 size=     256KiB time=00:00:01.36 bitrate=1534.8kbits/s speed=0.0154x elapsed=0:01:28.56    \nframe=   44 fps=0.5 q=40.5 size=     256KiB time=00:00:01.40 bitrate=1498.2kbits/s speed=0.0157x elapsed=0:01:29.10    \nframe=   44 fps=0.5 q=40.5 size=     256KiB time=00:00:01.40 bitrate=1498.2kbits/s speed=0.0156x elapsed=0:01:29.64    \nframe=   44 fps=0.5 q=40.5 size=     256KiB time=00:00:01.40 bitrate=1498.2kbits/s speed=0.0155x elapsed=0:01:30.17    \nframe=   45 fps=0.5 q=34.3 size=     256KiB time=00:00:01.43 bitrate=1463.4kbits/s speed=0.0158x elapsed=0:01:30.71    \nframe=   46 fps=0.5 q=37.5 size=     256KiB time=00:00:01.46 bitrate=1430.1kbits/s speed=0.0161x elapsed=0:01:31.23    \nframe=   46 fps=0.5 q=37.5 size=     256KiB time=00:00:01.46 bitrate=1430.1kbits/s speed=0.016x elapsed=0:01:31.75    \nframe=   46 fps=0.5 q=37.5 size=     256KiB time=00:00:01.46 bitrate=1430.1kbits/s speed=0.0159x elapsed=0:01:32.26    \nframe=   46 fps=0.5 q=37.5 size=     256KiB time=00:00:01.46 bitrate=1430.1kbits/s speed=0.0158x elapsed=0:01:32.79    \nframe=   46 fps=0.5 q=37.5 size=     256KiB time=00:00:01.46 bitrate=1430.1kbits/s speed=0.0157x elapsed=0:01:33.34    \nframe=   46 fps=0.5 q=37.5 size=     256KiB time=00:00:01.46 bitrate=1430.1kbits/s speed=0.0156x elapsed=0:01:33.87    \nframe=   46 fps=0.5 q=37.5 size=     256KiB time=00:00:01.46 bitrate=1430.1kbits/s speed=0.0155x elapsed=0:01:34.39    \nframe=   47 fps=0.5 q=39.7 size=     256KiB time=00:00:01.50 bitrate=1398.3kbits/s speed=0.0158x elapsed=0:01:34.90    \nframe=   47 fps=0.5 q=39.7 size=     256KiB time=00:00:01.50 bitrate=1398.3kbits/s speed=0.0157x elapsed=0:01:35.42    \nframe=   47 fps=0.5 q=39.7 size=     256KiB time=00:00:01.50 bitrate=1398.3kbits/s speed=0.0156x elapsed=0:01:35.93    \nframe=   47 fps=0.5 q=39.7 size=     256KiB time=00:00:01.50 bitrate=1398.3kbits/s speed=0.0156x elapsed=0:01:36.45    \nframe=   48 fps=0.5 q=40.5 size=     256KiB time=00:00:01.53 bitrate=1367.9kbits/s speed=0.0158x elapsed=0:01:36.97    \nframe=   49 fps=0.5 q=34.4 size=     256KiB time=00:00:01.56 bitrate=1338.8kbits/s speed=0.0161x elapsed=0:01:37.50    \nframe=   50 fps=0.5 q=39.3 size=     256KiB time=00:00:01.60 bitrate=1310.9kbits/s speed=0.0163x elapsed=0:01:38.04    \nframe=   51 fps=0.5 q=40.6 size=     256KiB time=00:00:01.63 bitrate=1284.2kbits/s speed=0.0166x elapsed=0:01:38.56    \nframe=   51 fps=0.5 q=40.6 size=     256KiB time=00:00:01.63 bitrate=1284.2kbits/s speed=0.0165x elapsed=0:01:39.09    \nframe=   51 fps=0.5 q=40.6 size=     256KiB time=00:00:01.63 bitrate=1284.2kbits/s speed=0.0164x elapsed=0:01:39.62    \nframe=   51 fps=0.5 q=40.6 size=     256KiB time=00:00:01.63 bitrate=1284.2kbits/s speed=0.0163x elapsed=0:01:40.14    \nframe=   52 fps=0.5 q=40.2 size=     256KiB time=00:00:01.66 bitrate=1258.5kbits/s speed=0.0166x elapsed=0:01:40.67    \nframe=   53 fps=0.5 q=40.6 size=     256KiB time=00:00:01.66 bitrate=1258.5kbits/s speed=0.0165x elapsed=0:01:41.20    \nframe=   53 fps=0.5 q=40.6 size=     256KiB time=00:00:01.70 bitrate=1233.8kbits/s speed=0.0167x elapsed=0:01:41.73    \nframe=   53 fps=0.5 q=40.6 size=     256KiB time=00:00:01.70 bitrate=1233.8kbits/s speed=0.0166x elapsed=0:01:42.26    \nframe=   54 fps=0.5 q=34.7 size=     256KiB time=00:00:01.73 bitrate=1210.1kbits/s speed=0.0169x elapsed=0:01:42.77    \nframe=   55 fps=0.5 q=37.6 size=     512KiB time=00:00:01.76 bitrate=2374.3kbits/s speed=0.0171x elapsed=0:01:43.31    \nframe=   55 fps=0.5 q=37.6 size=     512KiB time=00:00:01.76 bitrate=2374.3kbits/s speed=0.017x elapsed=0:01:43.88    \nframe=   55 fps=0.5 q=37.6 size=     512KiB time=00:00:01.76 bitrate=2374.3kbits/s speed=0.0169x elapsed=0:01:44.45    \nframe=   55 fps=0.5 q=37.6 size=     512KiB time=00:00:01.76 bitrate=2374.3kbits/s speed=0.0168x elapsed=0:01:45.05    \nframe=   55 fps=0.5 q=37.6 size=     512KiB time=00:00:01.76 bitrate=2374.3kbits/s speed=0.0167x elapsed=0:01:45.68    \nframe=   55 fps=0.5 q=37.6 size=     512KiB time=00:00:01.76 bitrate=2374.3kbits/s speed=0.0166x elapsed=0:01:46.27    \nframe=   55 fps=0.5 q=37.6 size=     512KiB time=00:00:01.76 bitrate=2374.3kbits/s speed=0.0165x elapsed=0:01:46.80    \nframe=   55 fps=0.5 q=37.6 size=     512KiB time=00:00:01.76 bitrate=2374.3kbits/s speed=0.0165x elapsed=0:01:47.35    \nframe=   55 fps=0.5 q=37.6 size=     512KiB time=00:00:01.76 bitrate=2374.3kbits/s speed=0.0164x elapsed=0:01:47.89    \nframe=   55 fps=0.5 q=37.6 size=     512KiB time=00:00:01.76 bitrate=2374.3kbits/s speed=0.0163x elapsed=0:01:48.42    \nframe=   55 fps=0.5 q=37.6 size=     512KiB time=00:00:01.76 bitrate=2374.3kbits/s speed=0.0162x elapsed=0:01:49.02    \nframe=   55 fps=0.5 q=37.6 size=     512KiB time=00:00:01.76 bitrate=2374.3kbits/s speed=0.0161x elapsed=0:01:49.57    \nframe=   55 fps=0.5 q=37.6 size=     512KiB time=00:00:01.76 bitrate=2374.3kbits/s speed=0.016x elapsed=0:01:50.15    \nframe=   55 fps=0.5 q=37.6 size=     512KiB time=00:00:01.76 bitrate=2374.3kbits/s speed=0.016x elapsed=0:01:50.75    \nframe=   56 fps=0.5 q=40.3 size=     512KiB time=00:00:01.76 bitrate=2374.3kbits/s speed=0.0159x elapsed=0:01:51.30    \nframe=   56 fps=0.5 q=40.3 size=     512KiB time=00:00:01.80 bitrate=2330.4kbits/s speed=0.0161x elapsed=0:01:51.87    \nframe=   56 fps=0.5 q=40.3 size=     512KiB time=00:00:01.80 bitrate=2330.4kbits/s speed=0.016x elapsed=0:01:52.42    \nframe=   56 fps=0.5 q=40.3 size=     512KiB time=00:00:01.80 bitrate=2330.4kbits/s speed=0.0159x elapsed=0:01:52.96    \nframe=   56 fps=0.5 q=40.3 size=     512KiB time=00:00:01.80 bitrate=2330.4kbits/s speed=0.0159x elapsed=0:01:53.49    \nframe=   56 fps=0.5 q=40.3 size=     512KiB time=00:00:01.80 bitrate=2330.4kbits/s speed=0.0158x elapsed=0:01:54.03    \nframe=   56 fps=0.5 q=40.3 size=     512KiB time=00:00:01.80 bitrate=2330.4kbits/s speed=0.0157x elapsed=0:01:54.54    \nframe=   56 fps=0.5 q=40.3 size=     512KiB time=00:00:01.80 bitrate=2330.4kbits/s speed=0.0156x elapsed=0:01:55.07    \nframe=   56 fps=0.5 q=40.3 size=     512KiB time=00:00:01.80 bitrate=2330.4kbits/s speed=0.0156x elapsed=0:01:55.63    \nframe=   57 fps=0.5 q=40.4 size=     512KiB time=00:00:01.80 bitrate=2330.4kbits/s speed=0.0155x elapsed=0:01:56.18    \nframe=   57 fps=0.5 q=40.4 size=     512KiB time=00:00:01.83 bitrate=2288.0kbits/s speed=0.0157x elapsed=0:01:56.74    \nframe=   57 fps=0.5 q=40.4 size=     512KiB time=00:00:01.83 bitrate=2288.0kbits/s speed=0.0156x elapsed=0:01:57.27    \nframe=   57 fps=0.5 q=40.4 size=     512KiB time=00:00:01.83 bitrate=2288.0kbits/s speed=0.0156x elapsed=0:01:57.82    \nframe=   57 fps=0.5 q=40.4 size=     512KiB time=00:00:01.83 bitrate=2288.0kbits/s speed=0.0155x elapsed=0:01:58.34    \nframe=   58 fps=0.5 q=34.7 size=     512KiB time=00:00:01.86 bitrate=2247.1kbits/s speed=0.0157x elapsed=0:01:58.87    \nframe=   59 fps=0.5 q=37.6 size=     512KiB time=00:00:01.90 bitrate=2207.7kbits/s speed=0.0159x elapsed=0:01:59.39    \nframe=   59 fps=0.5 q=37.6 size=     512KiB time=00:00:01.90 bitrate=2207.7kbits/s speed=0.0158x elapsed=0:01:59.92    \nframe=   59 fps=0.5 q=37.6 size=     512KiB time=00:00:01.90 bitrate=2207.7kbits/s speed=0.0158x elapsed=0:02:00.47    \nframe=   59 fps=0.5 q=37.6 size=     512KiB time=00:00:01.90 bitrate=2207.7kbits/s speed=0.0157x elapsed=0:02:01.01    \nframe=   60 fps=0.5 q=40.2 size=     512KiB time=00:00:01.93 bitrate=2169.7kbits/s speed=0.0159x elapsed=0:02:01.53    \nframe=   60 fps=0.5 q=40.2 size=     512KiB time=00:00:01.93 bitrate=2169.7kbits/s speed=0.0158x elapsed=0:02:02.05    \nframe=   60 fps=0.5 q=40.2 size=     512KiB time=00:00:01.93 bitrate=2169.7kbits/s speed=0.0158x elapsed=0:02:02.59    \nframe=   61 fps=0.5 q=40.5 size=     512KiB time=00:00:01.96 bitrate=2132.9kbits/s speed=0.016x elapsed=0:02:03.10    \nframe=   62 fps=0.5 q=34.6 size=     512KiB time=00:00:02.00 bitrate=2097.3kbits/s speed=0.0162x elapsed=0:02:03.62    \nframe=   63 fps=0.5 q=37.5 size=     512KiB time=00:00:02.03 bitrate=2062.9kbits/s speed=0.0164x elapsed=0:02:04.14    \nframe=   63 fps=0.5 q=37.5 size=     512KiB time=00:00:02.03 bitrate=2062.9kbits/s speed=0.0163x elapsed=0:02:04.69    \nframe=   63 fps=0.5 q=37.5 size=     512KiB time=00:00:02.03 bitrate=2062.9kbits/s speed=0.0162x elapsed=0:02:05.20    \nframe=   63 fps=0.5 q=37.5 size=     512KiB time=00:00:02.03 bitrate=2062.9kbits/s speed=0.0162x elapsed=0:02:05.73    \nframe=   63 fps=0.5 q=37.5 size=     512KiB time=00:00:02.03 bitrate=2062.9kbits/s speed=0.0161x elapsed=0:02:06.26    \nframe=   65 fps=0.5 q=40.5 size=     512KiB time=00:00:02.10 bitrate=1997.5kbits/s speed=0.0166x elapsed=0:02:06.78    \nframe=   65 fps=0.5 q=40.5 size=     512KiB time=00:00:02.10 bitrate=1997.5kbits/s speed=0.0165x elapsed=0:02:07.29    \nframe=   65 fps=0.5 q=40.5 size=     512KiB time=00:00:02.10 bitrate=1997.5kbits/s speed=0.0164x elapsed=0:02:07.81    \nframe=   66 fps=0.5 q=34.4 size=     512KiB time=00:00:02.13 bitrate=1966.2kbits/s speed=0.0166x elapsed=0:02:08.33    \nframe=   67 fps=0.5 q=37.4 size=     512KiB time=00:00:02.16 bitrate=1936.0kbits/s speed=0.0168x elapsed=0:02:08.85    \nframe=   67 fps=0.5 q=37.4 size=     512KiB time=00:00:02.16 bitrate=1936.0kbits/s speed=0.0167x elapsed=0:02:09.35    \nframe=   68 fps=0.5 q=40.3 size=     512KiB time=00:00:02.20 bitrate=1906.7kbits/s speed=0.0169x elapsed=0:02:09.87    \nframe=   69 fps=0.5 q=34.3 size=     512KiB time=00:00:02.23 bitrate=1878.2kbits/s speed=0.0171x elapsed=0:02:10.39    \nframe=   69 fps=0.5 q=34.3 size=     512KiB time=00:00:02.23 bitrate=1878.2kbits/s speed=0.0171x elapsed=0:02:10.91    \nframe=   69 fps=0.5 q=34.3 size=     512KiB time=00:00:02.23 bitrate=1878.2kbits/s speed=0.017x elapsed=0:02:11.43    \nframe=   70 fps=0.5 q=37.3 size=     512KiB time=00:00:02.26 bitrate=1850.6kbits/s speed=0.0172x elapsed=0:02:11.94    \nframe=   70 fps=0.5 q=37.3 size=     512KiB time=00:00:02.26 bitrate=1850.6kbits/s speed=0.0171x elapsed=0:02:12.48    \nframe=   70 fps=0.5 q=37.3 size=     512KiB time=00:00:02.26 bitrate=1850.6kbits/s speed=0.017x elapsed=0:02:13.02    \nframe=   70 fps=0.5 q=37.3 size=     512KiB time=00:00:02.26 bitrate=1850.6kbits/s speed=0.017x elapsed=0:02:13.66    \nframe=   70 fps=0.5 q=37.3 size=     512KiB time=00:00:02.26 bitrate=1850.6kbits/s speed=0.0169x elapsed=0:02:14.24    \nframe=   70 fps=0.5 q=37.3 size=     512KiB time=00:00:02.26 bitrate=1850.6kbits/s speed=0.0168x elapsed=0:02:14.85    \nframe=   70 fps=0.5 q=37.3 size=     512KiB time=00:00:02.26 bitrate=1850.6kbits/s speed=0.0167x elapsed=0:02:15.44    \nframe=   70 fps=0.5 q=37.3 size=     512KiB time=00:00:02.26 bitrate=1850.6kbits/s speed=0.0167x elapsed=0:02:15.97    \nframe=   70 fps=0.5 q=37.3 size=     512KiB time=00:00:02.26 bitrate=1850.6kbits/s speed=0.0166x elapsed=0:02:16.51    \nframe=   70 fps=0.5 q=37.3 size=     512KiB time=00:00:02.26 bitrate=1850.6kbits/s speed=0.0165x elapsed=0:02:17.08    \nframe=   70 fps=0.5 q=37.3 size=     512KiB time=00:00:02.26 bitrate=1850.6kbits/s speed=0.0165x elapsed=0:02:17.62    \nframe=   71 fps=0.5 q=40.1 size=     512KiB time=00:00:02.30 bitrate=1823.8kbits/s speed=0.0166x elapsed=0:02:18.14    \nframe=   71 fps=0.5 q=40.1 size=     512KiB time=00:00:02.30 bitrate=1823.8kbits/s speed=0.0166x elapsed=0:02:18.69    \nframe=   71 fps=0.5 q=40.1 size=     512KiB time=00:00:02.30 bitrate=1823.8kbits/s speed=0.0165x elapsed=0:02:19.25    \nframe=   71 fps=0.5 q=40.1 size=     512KiB time=00:00:02.30 bitrate=1823.8kbits/s speed=0.0165x elapsed=0:02:19.79    \nframe=   72 fps=0.5 q=40.0 size=     512KiB time=00:00:02.33 bitrate=1797.7kbits/s speed=0.0166x elapsed=0:02:20.33    \nframe=   72 fps=0.5 q=40.0 size=     512KiB time=00:00:02.33 bitrate=1797.7kbits/s speed=0.0166x elapsed=0:02:20.88    \nframe=   72 fps=0.5 q=40.0 size=     512KiB time=00:00:02.33 bitrate=1797.7kbits/s speed=0.0165x elapsed=0:02:21.45    \nframe=   73 fps=0.5 q=34.0 size=     512KiB time=00:00:02.36 bitrate=1772.4kbits/s speed=0.0167x elapsed=0:02:21.98    \nframe=   73 fps=0.5 q=34.0 size=     512KiB time=00:00:02.36 bitrate=1772.4kbits/s speed=0.0166x elapsed=0:02:22.52    \nframe=   73 fps=0.5 q=34.0 size=     512KiB time=00:00:02.36 bitrate=1772.4kbits/s speed=0.0165x elapsed=0:02:23.10    \nframe=   73 fps=0.5 q=34.0 size=     512KiB time=00:00:02.36 bitrate=1772.4kbits/s speed=0.0165x elapsed=0:02:23.66    \nframe=   74 fps=0.5 q=37.0 size=     512KiB time=00:00:02.40 bitrate=1747.8kbits/s speed=0.0166x elapsed=0:02:24.18    \nframe=   74 fps=0.5 q=37.0 size=     512KiB time=00:00:02.40 bitrate=1747.8kbits/s speed=0.0166x elapsed=0:02:24.74    \nframe=   74 fps=0.5 q=37.0 size=     512KiB time=00:00:02.40 bitrate=1747.8kbits/s speed=0.0165x elapsed=0:02:25.27    \nframe=   74 fps=0.5 q=37.0 size=     512KiB time=00:00:02.40 bitrate=1747.8kbits/s speed=0.0165x elapsed=0:02:25.81    \nframe=   74 fps=0.5 q=37.0 size=     512KiB time=00:00:02.40 bitrate=1747.8kbits/s speed=0.0164x elapsed=0:02:26.39    \nframe=   74 fps=0.5 q=37.0 size=     512KiB time=00:00:02.40 bitrate=1747.8kbits/s speed=0.0163x elapsed=0:02:26.97    \nframe=   74 fps=0.5 q=37.0 size=     512KiB time=00:00:02.40 bitrate=1747.8kbits/s speed=0.0163x elapsed=0:02:27.56    \nframe=   74 fps=0.5 q=37.0 size=     512KiB time=00:00:02.40 bitrate=1747.8kbits/s speed=0.0162x elapsed=0:02:28.10    \nframe=   74 fps=0.5 q=37.0 size=     512KiB time=00:00:02.40 bitrate=1747.8kbits/s speed=0.0161x elapsed=0:02:28.62    \nframe=   75 fps=0.5 q=40.3 size=     512KiB time=00:00:02.43 bitrate=1723.8kbits/s speed=0.0163x elapsed=0:02:29.22    \nframe=   75 fps=0.5 q=40.3 size=     512KiB time=00:00:02.43 bitrate=1723.8kbits/s speed=0.0162x elapsed=0:02:29.74    \nframe=   76 fps=0.5 q=39.7 size=     512KiB time=00:00:02.46 bitrate=1700.5kbits/s speed=0.0164x elapsed=0:02:30.27    \nframe=   76 fps=0.5 q=39.7 size=     512KiB time=00:00:02.46 bitrate=1700.5kbits/s speed=0.0164x elapsed=0:02:30.83    \nframe=   76 fps=0.5 q=39.7 size=     512KiB time=00:00:02.46 bitrate=1700.5kbits/s speed=0.0163x elapsed=0:02:31.34    \nframe=   76 fps=0.5 q=39.7 size=     512KiB time=00:00:02.46 bitrate=1700.5kbits/s speed=0.0162x elapsed=0:02:31.86    \nframe=   78 fps=0.5 q=37.2 size=     512KiB time=00:00:02.53 bitrate=1655.8kbits/s speed=0.0166x elapsed=0:02:32.40    \nframe=   78 fps=0.5 q=37.2 size=     512KiB time=00:00:02.53 bitrate=1655.8kbits/s speed=0.0166x elapsed=0:02:32.93    \nframe=   78 fps=0.5 q=37.2 size=     512KiB time=00:00:02.53 bitrate=1655.8kbits/s speed=0.0165x elapsed=0:02:33.49    \nframe=   78 fps=0.5 q=37.2 size=     512KiB time=00:00:02.53 bitrate=1655.8kbits/s speed=0.0164x elapsed=0:02:34.01    \nframe=   78 fps=0.5 q=37.2 size=     512KiB time=00:00:02.53 bitrate=1655.8kbits/s speed=0.0164x elapsed=0:02:34.54    \nframe=   78 fps=0.5 q=37.2 size=     512KiB time=00:00:02.53 bitrate=1655.8kbits/s speed=0.0163x elapsed=0:02:35.06    \nframe=   79 fps=0.5 q=39.6 size=     512KiB time=00:00:02.56 bitrate=1634.3kbits/s speed=0.0165x elapsed=0:02:35.59    \nframe=   80 fps=0.5 q=39.6 size=     512KiB time=00:00:02.60 bitrate=1613.3kbits/s speed=0.0167x elapsed=0:02:36.13    \nframe=   80 fps=0.5 q=39.6 size=     512KiB time=00:00:02.60 bitrate=1613.3kbits/s speed=0.0166x elapsed=0:02:36.66    \nframe=   80 fps=0.5 q=39.6 size=     512KiB time=00:00:02.60 bitrate=1613.3kbits/s speed=0.0165x elapsed=0:02:37.20    \nframe=   80 fps=0.5 q=39.6 size=     512KiB time=00:00:02.60 bitrate=1613.3kbits/s speed=0.0165x elapsed=0:02:37.75    \nframe=   80 fps=0.5 q=39.6 size=     512KiB time=00:00:02.60 bitrate=1613.3kbits/s speed=0.0164x elapsed=0:02:38.31    \nframe=   80 fps=0.5 q=39.6 size=     512KiB time=00:00:02.60 bitrate=1613.3kbits/s speed=0.0164x elapsed=0:02:38.85    \nframe=   80 fps=0.5 q=39.6 size=     512KiB time=00:00:02.60 bitrate=1613.3kbits/s speed=0.0163x elapsed=0:02:39.39    \nframe=   81 fps=0.5 q=34.0 size=     512KiB time=00:00:02.63 bitrate=1592.9kbits/s speed=0.0165x elapsed=0:02:39.93    \nframe=   82 fps=0.5 q=36.9 size=     768KiB time=00:00:02.66 bitrate=2359.4kbits/s speed=0.0166x elapsed=0:02:40.48    \nframe=   82 fps=0.5 q=36.9 size=     768KiB time=00:00:02.66 bitrate=2359.4kbits/s speed=0.0166x elapsed=0:02:41.04    \nframe=   82 fps=0.5 q=36.9 size=     768KiB time=00:00:02.66 bitrate=2359.4kbits/s speed=0.0165x elapsed=0:02:41.64    \nframe=   82 fps=0.5 q=36.9 size=     768KiB time=00:00:02.66 bitrate=2359.4kbits/s speed=0.0164x elapsed=0:02:42.20    \nframe=   82 fps=0.5 q=36.9 size=     768KiB time=00:00:02.66 bitrate=2359.4kbits/s speed=0.0164x elapsed=0:02:42.80    \nframe=   82 fps=0.5 q=36.9 size=     768KiB time=00:00:02.66 bitrate=2359.4kbits/s speed=0.0163x elapsed=0:02:43.42    \nframe=   82 fps=0.5 q=36.9 size=     768KiB time=00:00:02.66 bitrate=2359.4kbits/s speed=0.0163x elapsed=0:02:44.06    \nframe=   82 fps=0.5 q=36.9 size=     768KiB time=00:00:02.66 bitrate=2359.4kbits/s speed=0.0162x elapsed=0:02:44.64    \nframe=   82 fps=0.5 q=36.9 size=     768KiB time=00:00:02.66 bitrate=2359.4kbits/s speed=0.0161x elapsed=0:02:45.19    \nframe=   82 fps=0.5 q=36.9 size=     768KiB time=00:00:02.66 bitrate=2359.4kbits/s speed=0.0161x elapsed=0:02:45.73    \nframe=   82 fps=0.5 q=36.9 size=     768KiB time=00:00:02.66 bitrate=2359.4kbits/s speed=0.016x elapsed=0:02:46.26    \nframe=   83 fps=0.5 q=39.7 size=     768KiB time=00:00:02.70 bitrate=2330.3kbits/s speed=0.0162x elapsed=0:02:46.82    \nframe=   83 fps=0.5 q=39.7 size=     768KiB time=00:00:02.70 bitrate=2330.3kbits/s speed=0.0161x elapsed=0:02:47.37    \nframe=   83 fps=0.5 q=39.7 size=     768KiB time=00:00:02.70 bitrate=2330.3kbits/s speed=0.0161x elapsed=0:02:47.89    \nframe=   83 fps=0.5 q=39.7 size=     768KiB time=00:00:02.70 bitrate=2330.3kbits/s speed=0.016x elapsed=0:02:48.40    \nframe=   84 fps=0.5 q=39.9 size=     768KiB time=00:00:02.73 bitrate=2301.9kbits/s speed=0.0162x elapsed=0:02:48.92    \nframe=   85 fps=0.5 q=34.2 size=     768KiB time=00:00:02.76 bitrate=2274.1kbits/s speed=0.0163x elapsed=0:02:49.45    \nframe=   85 fps=0.5 q=34.2 size=     768KiB time=00:00:02.76 bitrate=2274.1kbits/s speed=0.0163x elapsed=0:02:49.98    \nframe=   85 fps=0.5 q=34.2 size=     768KiB time=00:00:02.76 bitrate=2274.1kbits/s speed=0.0162x elapsed=0:02:50.51    \nframe=   86 fps=0.5 q=38.0 size=     768KiB time=00:00:02.80 bitrate=2247.1kbits/s speed=0.0164x elapsed=0:02:51.03    \nframe=   86 fps=0.5 q=38.0 size=     768KiB time=00:00:02.80 bitrate=2247.1kbits/s speed=0.0163x elapsed=0:02:51.56    \nframe=   87 fps=0.5 q=39.6 size=     768KiB time=00:00:02.83 bitrate=2220.6kbits/s speed=0.0165x elapsed=0:02:52.09    \nframe=   88 fps=0.5 q=39.5 size=     768KiB time=00:00:02.86 bitrate=2194.8kbits/s speed=0.0166x elapsed=0:02:52.62    \nframe=   88 fps=0.5 q=39.5 size=     768KiB time=00:00:02.86 bitrate=2194.8kbits/s speed=0.0166x elapsed=0:02:53.15    \nframe=   88 fps=0.5 q=39.5 size=     768KiB time=00:00:02.86 bitrate=2194.8kbits/s speed=0.0165x elapsed=0:02:53.69    \nframe=   89 fps=0.5 q=39.6 size=     768KiB time=00:00:02.90 bitrate=2169.6kbits/s speed=0.0166x elapsed=0:02:54.20    \nframe=   89 fps=0.5 q=39.6 size=     768KiB time=00:00:02.90 bitrate=2169.6kbits/s speed=0.0166x elapsed=0:02:54.71    \nframe=   89 fps=0.5 q=39.6 size=     768KiB time=00:00:02.90 bitrate=2169.6kbits/s speed=0.0165x elapsed=0:02:55.23    \nframe=   89 fps=0.5 q=39.6 size=     768KiB time=00:00:02.90 bitrate=2169.6kbits/s speed=0.0165x elapsed=0:02:55.77    \nframe=   90 fps=0.5 q=33.7 size=     768KiB time=00:00:02.93 bitrate=2144.9kbits/s speed=0.0166x elapsed=0:02:56.30    \nframe=   90 fps=0.5 q=33.7 size=     768KiB time=00:00:02.93 bitrate=2144.9kbits/s speed=0.0166x elapsed=0:02:56.82    \nframe=   91 fps=0.5 q=38.1 size=     768KiB time=00:00:02.96 bitrate=2120.8kbits/s speed=0.0167x elapsed=0:02:57.35    \nframe=   92 fps=0.5 q=39.6 size=     768KiB time=00:00:03.00 bitrate=2097.3kbits/s speed=0.0169x elapsed=0:02:57.90    \nframe=   92 fps=0.5 q=39.6 size=     768KiB time=00:00:03.00 bitrate=2097.3kbits/s speed=0.0168x elapsed=0:02:58.42    \nframe=   93 fps=0.5 q=39.2 size=     768KiB time=00:00:03.03 bitrate=2074.2kbits/s speed=0.017x elapsed=0:02:58.94    \nframe=   93 fps=0.5 q=39.2 size=     768KiB time=00:00:03.03 bitrate=2074.2kbits/s speed=0.0169x elapsed=0:02:59.45    \nframe=   93 fps=0.5 q=39.2 size=     768KiB time=00:00:03.03 bitrate=2074.2kbits/s speed=0.0169x elapsed=0:02:59.97    \nframe=   93 fps=0.5 q=39.2 size=     768KiB time=00:00:03.03 bitrate=2074.2kbits/s speed=0.0168x elapsed=0:03:00.49    \nframe=   94 fps=0.5 q=39.1 size=     768KiB time=00:00:03.06 bitrate=2051.7kbits/s speed=0.0169x elapsed=0:03:01.01    \nframe=   94 fps=0.5 q=39.1 size=     768KiB time=00:00:03.06 bitrate=2051.7kbits/s speed=0.0169x elapsed=0:03:01.55    \nframe=   95 fps=0.5 q=33.8 size=     768KiB time=00:00:03.10 bitrate=2029.6kbits/s speed=0.017x elapsed=0:03:02.09    \nframe=   95 fps=0.5 q=33.8 size=     768KiB time=00:00:03.10 bitrate=2029.6kbits/s speed=0.017x elapsed=0:03:02.63    \nframe=   95 fps=0.5 q=33.8 size=     768KiB time=00:00:03.10 bitrate=2029.6kbits/s speed=0.0169x elapsed=0:03:03.17    \nframe=   96 fps=0.5 q=36.7 size=     768KiB time=00:00:03.13 bitrate=2008.0kbits/s speed=0.0171x elapsed=0:03:03.70    \nframe=   96 fps=0.5 q=36.7 size=     768KiB time=00:00:03.13 bitrate=2008.0kbits/s speed=0.017x elapsed=0:03:04.23    \nframe=   97 fps=0.5 q=38.5 size=     768KiB time=00:00:03.16 bitrate=1986.9kbits/s speed=0.0171x elapsed=0:03:04.75    \nframe=   98 fps=0.5 q=38.7 size=     768KiB time=00:00:03.20 bitrate=1966.2kbits/s speed=0.0173x elapsed=0:03:05.26    \nframe=   99 fps=0.5 q=33.6 size=     768KiB time=00:00:03.23 bitrate=1945.9kbits/s speed=0.0174x elapsed=0:03:05.77    \nframe=   99 fps=0.5 q=33.6 size=     768KiB time=00:00:03.23 bitrate=1945.9kbits/s speed=0.0174x elapsed=0:03:06.29    \nframe=   99 fps=0.5 q=33.6 size=     768KiB time=00:00:03.23 bitrate=1945.9kbits/s speed=0.0173x elapsed=0:03:06.88    \nframe=   99 fps=0.5 q=33.6 size=     768KiB time=00:00:03.23 bitrate=1945.9kbits/s speed=0.0172x elapsed=0:03:07.44    \nframe=   99 fps=0.5 q=33.6 size=     768KiB time=00:00:03.23 bitrate=1945.9kbits/s speed=0.0172x elapsed=0:03:07.96    \nframe=   99 fps=0.5 q=33.6 size=     768KiB time=00:00:03.23 bitrate=1945.9kbits/s speed=0.0171x elapsed=0:03:08.53    \nframe=  100 fps=0.5 q=36.6 size=     768KiB time=00:00:03.26 bitrate=1926.1kbits/s speed=0.0173x elapsed=0:03:09.05    \nframe=  100 fps=0.5 q=36.6 size=     768KiB time=00:00:03.26 bitrate=1926.1kbits/s speed=0.0172x elapsed=0:03:09.58    \nframe=  100 fps=0.5 q=36.6 size=     768KiB time=00:00:03.26 bitrate=1926.1kbits/s speed=0.0172x elapsed=0:03:10.10    \nframe=  101 fps=0.5 q=38.9 size=     768KiB time=00:00:03.30 bitrate=1906.6kbits/s speed=0.0173x elapsed=0:03:10.63    \nframe=  101 fps=0.5 q=38.9 size=     768KiB time=00:00:03.30 bitrate=1906.6kbits/s speed=0.0173x elapsed=0:03:11.16    \nframe=  102 fps=0.5 q=39.0 size=     768KiB time=00:00:03.33 bitrate=1887.5kbits/s speed=0.0174x elapsed=0:03:11.81    \nframe=  102 fps=0.5 q=39.0 size=     768KiB time=00:00:03.33 bitrate=1887.5kbits/s speed=0.0173x elapsed=0:03:12.40    \nframe=  102 fps=0.5 q=39.0 size=     768KiB time=00:00:03.33 bitrate=1887.5kbits/s speed=0.0173x elapsed=0:03:13.01    \nframe=  102 fps=0.5 q=39.0 size=     768KiB time=00:00:03.33 bitrate=1887.5kbits/s speed=0.0172x elapsed=0:03:13.63    \nframe=  102 fps=0.5 q=39.0 size=     768KiB time=00:00:03.33 bitrate=1887.5kbits/s speed=0.0172x elapsed=0:03:14.22    \nframe=  102 fps=0.5 q=39.0 size=     768KiB time=00:00:03.33 bitrate=1887.5kbits/s speed=0.0171x elapsed=0:03:14.79    \nframe=  102 fps=0.5 q=39.0 size=     768KiB time=00:00:03.33 bitrate=1887.5kbits/s speed=0.0171x elapsed=0:03:15.45    \nframe=  103 fps=0.5 q=33.8 size=     768KiB time=00:00:03.36 bitrate=1868.9kbits/s speed=0.0172x elapsed=0:03:16.01    \nframe=  104 fps=0.5 q=36.7 size=     768KiB time=00:00:03.40 bitrate=1850.5kbits/s speed=0.0173x elapsed=0:03:16.54    \nframe=  104 fps=0.5 q=36.7 size=     768KiB time=00:00:03.40 bitrate=1850.5kbits/s speed=0.0173x elapsed=0:03:17.07    \nframe=  104 fps=0.5 q=36.7 size=     768KiB time=00:00:03.40 bitrate=1850.5kbits/s speed=0.0172x elapsed=0:03:17.59    \nframe=  104 fps=0.5 q=36.7 size=     768KiB time=00:00:03.40 bitrate=1850.5kbits/s speed=0.0172x elapsed=0:03:18.12    \nframe=  105 fps=0.5 q=39.0 size=     768KiB time=00:00:03.43 bitrate=1832.6kbits/s speed=0.0173x elapsed=0:03:18.64    \nframe=  105 fps=0.5 q=39.0 size=     768KiB time=00:00:03.43 bitrate=1832.6kbits/s speed=0.0172x elapsed=0:03:19.15    \nframe=  105 fps=0.5 q=39.0 size=     768KiB time=00:00:03.43 bitrate=1832.6kbits/s speed=0.0172x elapsed=0:03:19.68    \nframe=  106 fps=0.5 q=38.7 size=     768KiB time=00:00:03.46 bitrate=1814.9kbits/s speed=0.0173x elapsed=0:03:20.21    \nframe=  106 fps=0.5 q=38.7 size=     768KiB time=00:00:03.46 bitrate=1814.9kbits/s speed=0.0173x elapsed=0:03:20.75    \nframe=  106 fps=0.5 q=38.7 size=     768KiB time=00:00:03.46 bitrate=1814.9kbits/s speed=0.0172x elapsed=0:03:21.28    \nframe=  108 fps=0.5 q=36.6 size=    1024KiB time=00:00:03.50 bitrate=2396.8kbits/s speed=0.0173x elapsed=0:03:21.82    \nframe=  108 fps=0.5 q=36.6 size=    1024KiB time=00:00:03.53 bitrate=2374.2kbits/s speed=0.0175x elapsed=0:03:22.35    \nframe=  108 fps=0.5 q=36.6 size=    1024KiB time=00:00:03.53 bitrate=2374.2kbits/s speed=0.0174x elapsed=0:03:22.87    \nframe=  109 fps=0.5 q=39.3 size=    1024KiB time=00:00:03.56 bitrate=2352.0kbits/s speed=0.0175x elapsed=0:03:23.40    \nframe=  109 fps=0.5 q=39.3 size=    1024KiB time=00:00:03.56 bitrate=2352.0kbits/s speed=0.0175x elapsed=0:03:23.92    \nframe=  109 fps=0.5 q=39.3 size=    1024KiB time=00:00:03.56 bitrate=2352.0kbits/s speed=0.0174x elapsed=0:03:24.44    \nframe=  110 fps=0.5 q=38.6 size=    1024KiB time=00:00:03.60 bitrate=2330.3kbits/s speed=0.0176x elapsed=0:03:24.96    \nframe=  112 fps=0.5 q=36.3 size=    1024KiB time=00:00:03.66 bitrate=2287.9kbits/s speed=0.0178x elapsed=0:03:25.48    \nframe=  112 fps=0.5 q=36.3 size=    1024KiB time=00:00:03.66 bitrate=2287.9kbits/s speed=0.0178x elapsed=0:03:26.00    \nframe=  113 fps=0.5 q=38.6 size=    1024KiB time=00:00:03.70 bitrate=2267.3kbits/s speed=0.0179x elapsed=0:03:26.51    \nframe=  113 fps=0.5 q=38.6 size=    1024KiB time=00:00:03.70 bitrate=2267.3kbits/s speed=0.0179x elapsed=0:03:27.02    \nframe=  113 fps=0.5 q=38.6 size=    1024KiB time=00:00:03.70 bitrate=2267.3kbits/s speed=0.0178x elapsed=0:03:27.56    \nframe=  114 fps=0.5 q=38.7 size=    1024KiB time=00:00:03.73 bitrate=2247.0kbits/s speed=0.0179x elapsed=0:03:28.08    \nframe=  115 fps=0.6 q=33.6 size=    1024KiB time=00:00:03.76 bitrate=2227.2kbits/s speed=0.0181x elapsed=0:03:28.61    \nframe=  116 fps=0.6 q=36.3 size=    1024KiB time=00:00:03.80 bitrate=2207.6kbits/s speed=0.0182x elapsed=0:03:29.18    \nframe=  116 fps=0.6 q=36.3 size=    1024KiB time=00:00:03.80 bitrate=2207.6kbits/s speed=0.0181x elapsed=0:03:29.72    \nframe=  116 fps=0.6 q=36.3 size=    1024KiB time=00:00:03.80 bitrate=2207.6kbits/s speed=0.0181x elapsed=0:03:30.27    \nframe=  116 fps=0.6 q=36.3 size=    1024KiB time=00:00:03.80 bitrate=2207.6kbits/s speed=0.018x elapsed=0:03:30.81    \nframe=  117 fps=0.6 q=38.9 size=    1024KiB time=00:00:03.83 bitrate=2188.4kbits/s speed=0.0181x elapsed=0:03:31.33    \nframe=  117 fps=0.6 q=38.9 size=    1024KiB time=00:00:03.83 bitrate=2188.4kbits/s speed=0.0181x elapsed=0:03:31.88    \nframe=  118 fps=0.6 q=38.6 size=    1024KiB time=00:00:03.86 bitrate=2169.6kbits/s speed=0.0182x elapsed=0:03:32.42    \nframe=  118 fps=0.6 q=38.6 size=    1024KiB time=00:00:03.86 bitrate=2169.6kbits/s speed=0.0182x elapsed=0:03:32.97    \nframe=  119 fps=0.6 q=33.5 size=    1024KiB time=00:00:03.90 bitrate=2151.0kbits/s speed=0.0183x elapsed=0:03:33.50    \nframe=  119 fps=0.6 q=33.5 size=    1024KiB time=00:00:03.90 bitrate=2151.0kbits/s speed=0.0182x elapsed=0:03:34.03    \nframe=  120 fps=0.6 q=36.3 size=    1024KiB time=00:00:03.93 bitrate=2132.8kbits/s speed=0.0183x elapsed=0:03:34.55    \nframe=  120 fps=0.6 q=36.3 size=    1024KiB time=00:00:03.93 bitrate=2132.8kbits/s speed=0.0183x elapsed=0:03:35.07    \nframe=  120 fps=0.6 q=36.3 size=    1024KiB time=00:00:03.93 bitrate=2132.8kbits/s speed=0.0182x elapsed=0:03:35.61    \nframe=  121 fps=0.6 q=38.9 size=    1024KiB time=00:00:03.96 bitrate=2114.9kbits/s speed=0.0184x elapsed=0:03:36.14    \nframe=  121 fps=0.6 q=38.9 size=    1024KiB time=00:00:03.96 bitrate=2114.9kbits/s speed=0.0183x elapsed=0:03:36.67    \nframe=  122 fps=0.6 q=38.6 size=    1024KiB time=00:00:04.00 bitrate=2097.2kbits/s speed=0.0184x elapsed=0:03:37.20    \nframe=  122 fps=0.6 q=38.6 size=    1024KiB time=00:00:04.00 bitrate=2097.2kbits/s speed=0.0184x elapsed=0:03:37.74    \nframe=  123 fps=0.6 q=33.5 size=    1024KiB time=00:00:04.03 bitrate=2079.9kbits/s speed=0.0185x elapsed=0:03:38.26    \nframe=  123 fps=0.6 q=33.5 size=    1024KiB time=00:00:04.03 bitrate=2079.9kbits/s speed=0.0184x elapsed=0:03:38.77    \nframe=  124 fps=0.6 q=35.9 size=    1024KiB time=00:00:04.06 bitrate=2062.9kbits/s speed=0.0185x elapsed=0:03:39.30    \nframe=  124 fps=0.6 q=35.9 size=    1024KiB time=00:00:04.06 bitrate=2062.9kbits/s speed=0.0185x elapsed=0:03:39.84    \nframe=  125 fps=0.6 q=38.2 size=    1024KiB time=00:00:04.10 bitrate=2046.1kbits/s speed=0.0186x elapsed=0:03:40.35    \nframe=  125 fps=0.6 q=38.2 size=    1024KiB time=00:00:04.10 bitrate=2046.1kbits/s speed=0.0186x elapsed=0:03:40.88    \nframe=  125 fps=0.6 q=38.2 size=    1024KiB time=00:00:04.10 bitrate=2046.1kbits/s speed=0.0185x elapsed=0:03:41.40    \nframe=  126 fps=0.6 q=37.8 size=    1024KiB time=00:00:04.13 bitrate=2029.6kbits/s speed=0.0186x elapsed=0:03:41.93    \nframe=  126 fps=0.6 q=37.8 size=    1024KiB time=00:00:04.13 bitrate=2029.6kbits/s speed=0.0186x elapsed=0:03:42.43    \nframe=  127 fps=0.6 q=33.6 size=    1024KiB time=00:00:04.16 bitrate=2013.4kbits/s speed=0.0187x elapsed=0:03:42.98    \nframe=  127 fps=0.6 q=33.6 size=    1024KiB time=00:00:04.16 bitrate=2013.4kbits/s speed=0.0186x elapsed=0:03:43.50    \nframe=  127 fps=0.6 q=33.6 size=    1024KiB time=00:00:04.16 bitrate=2013.4kbits/s speed=0.0186x elapsed=0:03:44.03    \nframe=  128 fps=0.6 q=36.1 size=    1024KiB time=00:00:04.20 bitrate=1997.4kbits/s speed=0.0187x elapsed=0:03:44.56    \nframe=  129 fps=0.6 q=38.3 size=    1024KiB time=00:00:04.23 bitrate=1981.6kbits/s speed=0.0188x elapsed=0:03:45.08    \nframe=  129 fps=0.6 q=38.3 size=    1024KiB time=00:00:04.23 bitrate=1981.6kbits/s speed=0.0188x elapsed=0:03:45.60    \nframe=  129 fps=0.6 q=38.3 size=    1024KiB time=00:00:04.23 bitrate=1981.6kbits/s speed=0.0187x elapsed=0:03:46.12    \nframe=  130 fps=0.6 q=38.5 size=    1024KiB time=00:00:04.26 bitrate=1966.2kbits/s speed=0.0188x elapsed=0:03:46.64    \nframe=  130 fps=0.6 q=38.5 size=    1024KiB time=00:00:04.26 bitrate=1966.2kbits/s speed=0.0188x elapsed=0:03:47.17    \nframe=  130 fps=0.6 q=38.5 size=    1024KiB time=00:00:04.26 bitrate=1966.2kbits/s speed=0.0187x elapsed=0:03:47.71    \nframe=  131 fps=0.6 q=33.6 size=    1024KiB time=00:00:04.30 bitrate=1950.9kbits/s speed=0.0188x elapsed=0:03:48.24    \nframe=  131 fps=0.6 q=33.6 size=    1024KiB time=00:00:04.30 bitrate=1950.9kbits/s speed=0.0188x elapsed=0:03:48.81    \nframe=  131 fps=0.6 q=33.6 size=    1024KiB time=00:00:04.30 bitrate=1950.9kbits/s speed=0.0187x elapsed=0:03:49.37    \nframe=  132 fps=0.6 q=35.8 size=    1280KiB time=00:00:04.33 bitrate=2419.9kbits/s speed=0.0188x elapsed=0:03:49.95    \nframe=  132 fps=0.6 q=35.8 size=    1280KiB time=00:00:04.33 bitrate=2419.9kbits/s speed=0.0188x elapsed=0:03:50.51    \nframe=  133 fps=0.6 q=37.7 size=    1280KiB time=00:00:04.36 bitrate=2401.4kbits/s speed=0.0189x elapsed=0:03:51.03    \nframe=  133 fps=0.6 q=37.7 size=    1280KiB time=00:00:04.36 bitrate=2401.4kbits/s speed=0.0189x elapsed=0:03:51.56    \nframe=  134 fps=0.6 q=38.1 size=    1280KiB time=00:00:04.40 bitrate=2383.2kbits/s speed=0.019x elapsed=0:03:52.09    \nframe=  134 fps=0.6 q=38.1 size=    1280KiB time=00:00:04.40 bitrate=2383.2kbits/s speed=0.0189x elapsed=0:03:52.60    \nframe=  135 fps=0.6 q=33.6 size=    1280KiB time=00:00:04.43 bitrate=2365.3kbits/s speed=0.019x elapsed=0:03:53.12    \nframe=  136 fps=0.6 q=35.4 size=    1280KiB time=00:00:04.46 bitrate=2347.6kbits/s speed=0.0191x elapsed=0:03:53.64    \nframe=  136 fps=0.6 q=35.4 size=    1280KiB time=00:00:04.46 bitrate=2347.6kbits/s speed=0.0191x elapsed=0:03:54.21    \nframe=  136 fps=0.6 q=35.4 size=    1280KiB time=00:00:04.46 bitrate=2347.6kbits/s speed=0.019x elapsed=0:03:54.73    \nframe=  137 fps=0.6 q=38.1 size=    1280KiB time=00:00:04.50 bitrate=2330.2kbits/s speed=0.0191x elapsed=0:03:55.25    \nframe=  137 fps=0.6 q=38.1 size=    1280KiB time=00:00:04.50 bitrate=2330.2kbits/s speed=0.0191x elapsed=0:03:55.77    \nframe=  137 fps=0.6 q=38.1 size=    1280KiB time=00:00:04.50 bitrate=2330.2kbits/s speed=0.019x elapsed=0:03:56.30    \nframe=  138 fps=0.6 q=37.5 size=    1280KiB time=00:00:04.53 bitrate=2313.1kbits/s speed=0.0191x elapsed=0:03:56.85    \nframe=  139 fps=0.6 q=33.4 size=    1280KiB time=00:00:04.56 bitrate=2296.2kbits/s speed=0.0192x elapsed=0:03:57.35    \nframe=  140 fps=0.6 q=35.1 size=    1280KiB time=00:00:04.60 bitrate=2279.6kbits/s speed=0.0193x elapsed=0:03:57.89    \nframe=  140 fps=0.6 q=35.1 size=    1280KiB time=00:00:04.60 bitrate=2279.6kbits/s speed=0.0193x elapsed=0:03:58.41    \nframe=  141 fps=0.6 q=37.0 size=    1280KiB time=00:00:04.63 bitrate=2263.2kbits/s speed=0.0194x elapsed=0:03:58.91    \nframe=  141 fps=0.6 q=37.0 size=    1280KiB time=00:00:04.63 bitrate=2263.2kbits/s speed=0.0194x elapsed=0:03:59.43    \nframe=  141 fps=0.6 q=37.0 size=    1280KiB time=00:00:04.63 bitrate=2263.2kbits/s speed=0.0193x elapsed=0:03:59.96    \nframe=  142 fps=0.6 q=36.7 size=    1280KiB time=00:00:04.66 bitrate=2247.0kbits/s speed=0.0194x elapsed=0:04:00.49    \nframe=  143 fps=0.6 q=33.8 size=    1280KiB time=00:00:04.70 bitrate=2231.1kbits/s speed=0.0195x elapsed=0:04:01.00    \nframe=  144 fps=0.6 q=34.4 size=    1280KiB time=00:00:04.73 bitrate=2215.4kbits/s speed=0.0196x elapsed=0:04:01.52    \nframe=  144 fps=0.6 q=34.4 size=    1280KiB time=00:00:04.73 bitrate=2215.4kbits/s speed=0.0196x elapsed=0:04:02.05    \nframe=  144 fps=0.6 q=34.4 size=    1280KiB time=00:00:04.73 bitrate=2215.4kbits/s speed=0.0195x elapsed=0:04:02.57    \nframe=  144 fps=0.6 q=34.4 size=    1280KiB time=00:00:04.73 bitrate=2215.4kbits/s speed=0.0195x elapsed=0:04:03.09    \nframe=  145 fps=0.6 q=36.2 size=    1280KiB time=00:00:04.76 bitrate=2199.9kbits/s speed=0.0196x elapsed=0:04:03.60    \nframe=  145 fps=0.6 q=36.2 size=    1280KiB time=00:00:04.76 bitrate=2199.9kbits/s speed=0.0195x elapsed=0:04:04.12    \nframe=  146 fps=0.6 q=35.9 size=    1280KiB time=00:00:04.80 bitrate=2184.6kbits/s speed=0.0196x elapsed=0:04:04.65    \nframe=  146 fps=0.6 q=35.9 size=    1280KiB time=00:00:04.80 bitrate=2184.6kbits/s speed=0.0196x elapsed=0:04:05.17    \nframe=  147 fps=0.6 q=35.1 size=    1280KiB time=00:00:04.83 bitrate=2169.5kbits/s speed=0.0197x elapsed=0:04:05.68    \nframe=  148 fps=0.6 q=32.9 size=    1280KiB time=00:00:04.86 bitrate=2154.7kbits/s speed=0.0198x elapsed=0:04:06.20    \n[mp4 @ 0000029122da9740] Starting second pass: moving the moov atom to the beginning of the file\n[out#0/mp4 @ 0000029122d9ab00] video:1484KiB audio:0KiB subtitle:0KiB other streams:0KiB global headers:2KiB muxing overhead: 0.348923%\nframe=  150 fps=0.6 q=33.6 Lsize=    1490KiB time=00:00:04.93 bitrate=2473.6kbits/s speed=0.02x elapsed=0:04:06.67    \nx265 [info]: frame I:      1, Avg QP:34.42  kb/s: 15242.16\nx265 [info]: frame P:     37, Avg QP:34.55  kb/s: 7066.53 \nx265 [info]: frame B:    112, Avg QP:39.01  kb/s: 785.51  \nx265 [info]: Weighted P-Frames: Y:13.5% UV:13.5%\n\nencoded 150 frames in 246.36s (0.61 fps), 2431.21 kb/s, Avg QP:37.88\n",
  "seconds": 246.9981095790863,
  "probe_out": {}
}